<svg width="128" height="60" viewBox="0 0 128 60" fill="none" xmlns="http://www.w3.org/2000/svg">
<g clip-path="url(#clip0_2003_810)">
<path d="M9.94966 59.7556V53.7556L6.96211 58.7556H6.40261L3.42298 53.7899V59.7556H2.29077V51.5188H3.25935L6.69028 57.3083L10.0895 51.5188H11.0581V59.7556H9.94966Z" fill="white"/>
<path d="M22.652 58.724V59.7477H16.6558V51.5109H22.5015V52.5345H17.8381V55.0635H21.9737V56.0661H17.8381V58.724H22.652Z" fill="white"/>
<path d="M27.7799 51.5188H31.261C32.0671 51.5064 32.8644 51.6869 33.5861 52.0451C34.2425 52.3682 34.7921 52.8724 35.1696 53.4977C35.5366 54.1543 35.7293 54.8935 35.7293 55.6451C35.7293 56.3967 35.5366 57.1359 35.1696 57.7925C34.7914 58.4179 34.2421 58.9228 33.5861 59.2477C32.8644 59.6059 32.0671 59.7864 31.261 59.774H27.7799V51.5188ZM31.1792 58.724C31.7902 58.737 32.3955 58.6044 32.9448 58.3372C33.4328 58.0936 33.8404 57.7155 34.1192 57.2477C34.3895 56.7509 34.531 56.1946 34.531 55.6293C34.531 55.0641 34.3895 54.5078 34.1192 54.0109C33.8411 53.5432 33.4332 53.1658 32.9448 52.9241C32.3961 52.6548 31.7905 52.5212 31.1792 52.5346H28.9491V58.724H31.1792Z" fill="white"/>
<path d="M40.6036 51.5188H41.786V59.7556H40.6036V51.5188Z" fill="white"/>
<path d="M48.8089 59.303C48.1585 58.954 47.617 58.4333 47.2439 57.7977C46.8718 57.1386 46.6764 56.3949 46.6764 55.6385C46.6764 54.8821 46.8718 54.1385 47.2439 53.4793C47.6176 52.8417 48.1611 52.3198 48.8142 51.9714C49.502 51.6014 50.2734 51.413 51.0548 51.424C51.6606 51.4164 52.2621 51.5264 52.8257 51.7477C53.3513 51.9568 53.8204 52.2858 54.1955 52.7083L53.4275 53.4609C53.131 53.1437 52.7705 52.8927 52.3698 52.7245C51.969 52.5562 51.5371 52.4744 51.1023 52.4846C50.5216 52.4762 49.9486 52.6186 49.4397 52.8977C48.9542 53.1615 48.5513 53.554 48.2758 54.0319C48.0006 54.5272 47.8562 55.0841 47.8562 55.6504C47.8562 56.2166 48.0006 56.7735 48.2758 57.2688C48.5519 57.7469 48.9546 58.1402 49.4397 58.4056C49.9493 58.6827 50.5219 58.8241 51.1023 58.8162C51.5378 58.8246 51.9701 58.7411 52.3709 58.571C52.7716 58.4009 53.1317 58.1481 53.4275 57.8293L54.1955 58.5688C53.8177 58.9918 53.3471 59.3223 52.8204 59.5346C52.2555 59.7585 51.6522 59.8703 51.0443 59.8635C50.2632 59.8716 49.4932 59.6785 48.8089 59.303Z" fill="white"/>
<path d="M64.5515 57.6977H60.1599L59.2521 59.7556H58.0354L61.7777 51.5188H62.9469L66.6998 59.7556H65.4594L64.5515 57.6977ZM64.1372 56.7556L62.3531 52.7188L60.5716 56.7556H64.1372Z" fill="white"/>
<path d="M71.1575 51.5188H72.3398V58.7241H76.8106V59.7478H71.1575V51.5188Z" fill="white"/>
<path d="M101.21 24.7425C101.652 24.783 102.066 24.9764 102.38 25.2893C102.695 25.6021 102.889 26.0148 102.93 26.4557L103.54 33.1109C103.572 33.4568 103.527 33.8053 103.408 34.1318C103.289 34.4584 103.1 34.7549 102.854 35.0004L100.107 37.7425C100.042 37.8055 99.9616 37.8491 99.8736 37.8682C99.7856 37.8874 99.6939 37.8813 99.6092 37.8508C99.5245 37.8203 99.4502 37.7665 99.3948 37.6956C99.3395 37.6248 99.3053 37.5398 99.2964 37.4504L98.6709 30.7004C98.6296 30.2602 98.4353 29.8482 98.1215 29.5359C97.8077 29.2235 97.3943 29.0303 96.9528 28.9899L90.1859 28.3636C90.0963 28.3552 90.0109 28.3216 89.9396 28.2667C89.8684 28.2118 89.8143 28.1379 89.7836 28.0535C89.7529 27.9691 89.7469 27.8777 89.7662 27.7901C89.7856 27.7024 89.8296 27.622 89.893 27.5583L92.6404 24.8188C92.8866 24.5732 93.184 24.3846 93.5114 24.2664C93.8389 24.1481 94.1884 24.1032 94.5353 24.1346L101.21 24.7425Z" fill="#00CC66"/>
<path d="M116.285 13.1399C115.842 13.0992 115.428 12.9053 115.114 12.5919C114.801 12.2784 114.607 11.8652 114.567 11.4241L113.957 4.77671C113.925 4.43063 113.969 4.08172 114.087 3.75472C114.205 3.42772 114.394 3.13065 114.641 2.8846L117.391 0.14513C117.454 0.0819018 117.535 0.0380813 117.623 0.018775C117.711 -0.000531261 117.803 0.00547163 117.887 0.0360827C117.972 0.0666937 118.046 0.120653 118.101 0.191675C118.156 0.262697 118.19 0.347857 118.198 0.437234L118.832 7.17934C118.872 7.6196 119.066 8.03186 119.379 8.34473C119.692 8.6576 120.106 8.85137 120.547 8.8925L127.311 9.51355C127.401 9.52194 127.487 9.55574 127.558 9.61098C127.63 9.66621 127.684 9.74059 127.714 9.8254C127.745 9.9102 127.75 10.0019 127.73 10.0898C127.71 10.1776 127.666 10.258 127.602 10.3214L124.854 13.0609C124.608 13.3065 124.311 13.4951 123.983 13.6134C123.656 13.7316 123.306 13.7766 122.959 13.7451L116.285 13.1399Z" fill="white"/>
<path d="M114.567 26.4557C114.607 26.015 114.801 25.6024 115.115 25.2895C115.429 24.9766 115.843 24.7831 116.285 24.7425L122.959 24.1346C123.306 24.1032 123.655 24.1481 123.983 24.2664C124.31 24.3846 124.608 24.5732 124.854 24.8188L127.601 27.5583C127.666 27.6214 127.711 27.7016 127.731 27.7894C127.751 27.8772 127.745 27.9689 127.715 28.0536C127.684 28.1384 127.63 28.2126 127.558 28.2675C127.487 28.3225 127.401 28.3558 127.311 28.3636L120.542 28.9872C120.1 29.0278 119.687 29.221 119.374 29.5334C119.061 29.8459 118.867 30.2578 118.826 30.6978L118.198 37.4478C118.19 37.5371 118.156 37.6223 118.101 37.6933C118.046 37.7644 117.972 37.8183 117.887 37.8489C117.802 37.8795 117.711 37.8855 117.623 37.8662C117.535 37.8469 117.454 37.8031 117.39 37.7399L114.64 34.9978C114.395 34.752 114.206 34.4554 114.088 34.1289C113.97 33.8024 113.925 33.4539 113.957 33.1083L114.567 26.4557Z" fill="white"/>
<path d="M102.93 11.4241C102.89 11.8654 102.695 12.2787 102.381 12.5921C102.067 12.9055 101.652 13.0993 101.21 13.1398L94.5353 13.7477C94.1884 13.7792 93.8389 13.7342 93.5114 13.616C93.184 13.4977 92.8866 13.3091 92.6403 13.0635L89.893 10.3241C89.8279 10.2606 89.7825 10.1798 89.7622 10.0913C89.7419 10.0028 89.7475 9.91038 89.7784 9.82499C89.8092 9.7396 89.8641 9.66485 89.9363 9.60963C90.0086 9.55441 90.0952 9.52106 90.1859 9.51353L96.9528 8.88985C97.3945 8.84881 97.808 8.65513 98.1217 8.34231C98.4355 8.02949 98.6297 7.61718 98.6708 7.17669L99.3016 0.431956C99.3096 0.342043 99.3432 0.256274 99.3984 0.184747C99.4536 0.113221 99.5282 0.0589146 99.6133 0.0282231C99.6984 -0.00246833 99.7906 -0.00826735 99.8789 0.0115087C99.9672 0.0312848 100.048 0.0758134 100.112 0.13985L102.859 2.87932C103.106 3.12514 103.295 3.4221 103.414 3.74911C103.532 4.07612 103.577 4.42516 103.545 4.77143L102.93 11.4241Z" fill="white"/>
<path d="M76.5651 41.9503C76.408 41.9296 76.2628 41.8554 76.1542 41.7403C76.0455 41.6253 75.98 41.4764 75.9686 41.3188V22.0635C75.9745 21.9028 76.0412 21.7502 76.1553 21.6364C76.2693 21.5227 76.4224 21.4562 76.5836 21.4503L78.8242 21.1872V18.9398H68.1593V21.1872L70.5662 21.4267C70.7311 21.4347 70.8867 21.505 71.0014 21.6233C71.1161 21.7416 71.1813 21.899 71.1838 22.0635V41.3372C71.1711 41.4963 71.102 41.6457 70.9888 41.7585C70.8756 41.8714 70.7258 41.9403 70.5662 41.953L68.125 42.4319V44.3425H79.0142V42.4346L76.5651 41.9503Z" fill="white"/>
<path d="M60.8198 41.9635C60.6651 41.9327 60.5238 41.8549 60.4151 41.7409C60.3065 41.6269 60.2358 41.4822 60.2128 41.3267L58.5554 22.3161C58.5554 22.2503 58.5554 21.7898 59.1729 21.7161L61.5007 21.453V18.9398H52.7281L47.484 36.9056L42.0315 18.9398H32.4513V21.453L34.8899 21.7161C35.0512 21.7168 35.2059 21.7801 35.3212 21.8926C35.4365 22.0051 35.5033 22.158 35.5075 22.3188L34.2301 41.3714C34.2012 41.5166 34.129 41.6497 34.0231 41.7535C33.9172 41.8572 33.7824 41.9267 33.6363 41.953L31.4088 42.4319V44.3425H40.6195V42.4346L38.2443 41.9319C38.0832 41.9169 37.9329 41.8446 37.8209 41.7281C37.7089 41.6116 37.6428 41.4588 37.6346 41.2977L38.2891 21.9898L45.8609 44.3582H47.7084L54.5491 22.0714L55.7552 41.3688C55.7552 41.3977 55.7552 41.8372 55.1376 41.9767L53.1292 42.4319V44.3425H62.881V42.4346L60.8198 41.9635Z" fill="white"/>
<path d="M23.8212 41.9556C23.6637 41.9386 23.5167 41.8687 23.4044 41.7572C23.2921 41.6457 23.2213 41.4994 23.2036 41.3425V22.0109C23.2167 21.8562 23.2853 21.7115 23.3968 21.6032C23.5083 21.4949 23.6552 21.4304 23.8106 21.4214L25.9932 21.1872V18.9398H15.74V21.1872L17.8778 21.3951C18.0426 21.4031 18.1982 21.4734 18.3129 21.5917C18.4276 21.71 18.4928 21.8674 18.4953 22.0319V30.403H7.60609V22.0082C7.61827 21.8526 7.68736 21.7068 7.80024 21.5986C7.91312 21.4905 8.06192 21.4274 8.21838 21.4214L10.3614 21.1872V18.9398H0.0686035V21.1872L2.24328 21.4214C2.40284 21.4295 2.55378 21.496 2.66723 21.6082C2.78068 21.7203 2.84868 21.8703 2.85821 22.0293V41.3556C2.85821 41.3556 2.85821 41.8346 2.24064 41.9688L0.100273 42.4346V44.3451H10.5303V42.4346L8.20254 41.9556C8.04985 41.935 7.90836 41.8644 7.80038 41.7548C7.69239 41.6452 7.62403 41.5029 7.60609 41.3503V33.0188H18.4953V41.3556C18.4816 41.5143 18.4121 41.6631 18.2992 41.7758C18.1862 41.8885 18.0369 41.9577 17.8778 41.9714L15.5711 42.4451V44.3556H26.1595V42.4346L23.8212 41.9582V41.9556Z" fill="white"/>
</g>
<defs>
<clipPath id="clip0_2003_810">
<rect width="128" height="60" fill="white"/>
</clipPath>
</defs>
</svg>
