<svg width="102" height="48" viewBox="0 0 102 48" fill="none" xmlns="http://www.w3.org/2000/svg">
<g clip-path="url(#clip0_2003_73)">
<path d="M7.8902 47.8046V43.0046L5.50458 47.0046H5.0578L2.67851 43.0319V47.8046H1.77441V41.2151H2.54784L5.28751 45.8467L8.00189 41.2151H8.77532V47.8046H7.8902Z" fill="#004E89"/>
<path d="M18.0333 46.9793V47.7982H13.2452V41.2087H17.9132V42.0277H14.1894V44.0508H17.4917V44.853H14.1894V46.9793H18.0333Z" fill="#004E89"/>
<path d="M22.1281 41.2151H24.9078C25.5514 41.2052 26.1881 41.3496 26.7644 41.6361C27.2886 41.8946 27.7274 42.298 28.0289 42.7982C28.3219 43.3235 28.4758 43.9148 28.4758 44.5161C28.4758 45.1174 28.3219 45.7088 28.0289 46.234C27.7269 46.7344 27.2882 47.1383 26.7644 47.3982C26.1881 47.6848 25.5514 47.8292 24.9078 47.8193H22.1281V41.2151ZM24.8424 46.9793C25.3303 46.9897 25.8137 46.8836 26.2523 46.6698C26.642 46.475 26.9675 46.1725 27.1901 45.7982C27.4059 45.4007 27.519 44.9557 27.519 44.5035C27.519 44.0513 27.4059 43.6063 27.1901 43.2088C26.968 42.8346 26.6423 42.5327 26.2523 42.3393C25.8142 42.1239 25.3306 42.017 24.8424 42.0277H23.0616V46.9793H24.8424Z" fill="#004E89"/>
<path d="M32.3682 41.2151H33.3123V47.8046H32.3682V41.2151Z" fill="#004E89"/>
<path d="M38.9201 47.4424C38.4008 47.1633 37.9684 46.7466 37.6704 46.2382C37.3733 45.7109 37.2173 45.116 37.2173 44.5109C37.2173 43.9058 37.3733 43.3108 37.6704 42.7835C37.9688 42.2734 38.4029 41.8559 38.9243 41.5772C39.4736 41.2812 40.0895 41.1304 40.7136 41.1393C41.1973 41.1332 41.6776 41.2211 42.1277 41.3982C42.5473 41.5655 42.9219 41.8287 43.2214 42.1667L42.6082 42.7688C42.3714 42.515 42.0836 42.3142 41.7636 42.1796C41.4435 42.045 41.0986 41.9796 40.7515 41.9877C40.2877 41.981 39.8302 42.0949 39.4238 42.3182C39.0361 42.5292 38.7145 42.8433 38.4944 43.2256C38.2747 43.6218 38.1594 44.0674 38.1594 44.5203C38.1594 44.9733 38.2747 45.4189 38.4944 45.8151C38.7149 46.1976 39.0364 46.5122 39.4238 46.7246C39.8307 46.9462 40.288 47.0594 40.7515 47.053C41.0992 47.0598 41.4444 46.9929 41.7644 46.8568C42.0845 46.7208 42.372 46.5186 42.6082 46.2635L43.2214 46.8551C42.9197 47.1935 42.544 47.4579 42.1234 47.6277C41.6723 47.8069 41.1905 47.8963 40.7051 47.8909C40.0814 47.8973 39.4666 47.7429 38.9201 47.4424Z" fill="#004E89"/>
<path d="M51.491 46.1582H47.9842L47.2592 47.8046H46.2877L49.2761 41.2151H50.2097L53.2064 47.8046H52.2159L51.491 46.1582ZM51.1601 45.4046L49.7355 42.1751L48.313 45.4046H51.1601Z" fill="#004E89"/>
<path d="M56.766 41.2151H57.7101V46.9793H61.2801V47.7982H56.766V41.2151Z" fill="#004E89"/>
<path d="M80.7633 19.7939C81.1165 19.8263 81.4471 19.981 81.6981 20.2313C81.949 20.4816 82.1044 20.8117 82.1374 21.1644L82.6242 26.4886C82.6494 26.7653 82.6134 27.0441 82.5187 27.3054C82.424 27.5666 82.273 27.8038 82.0763 28.0002L79.8824 30.1939C79.8311 30.2443 79.7666 30.2791 79.6964 30.2945C79.6261 30.3098 79.5529 30.305 79.4853 30.2806C79.4176 30.2561 79.3583 30.2131 79.3141 30.1564C79.2699 30.0997 79.2426 30.0317 79.2354 29.9602L78.736 24.5602C78.703 24.2081 78.5479 23.8785 78.2973 23.6286C78.0468 23.3787 77.7166 23.2242 77.364 23.1918L71.9606 22.6908C71.889 22.6841 71.8208 22.6572 71.7639 22.6133C71.707 22.5693 71.6638 22.5102 71.6393 22.4427C71.6148 22.3752 71.61 22.3021 71.6255 22.232C71.6409 22.1618 71.676 22.0975 71.7266 22.0465L73.9205 19.855C74.1171 19.6585 74.3546 19.5076 74.6161 19.413C74.8776 19.3184 75.1567 19.2824 75.4336 19.3076L80.7633 19.7939Z" fill="#00CC66"/>
<path d="M92.801 10.5118C92.4478 10.4793 92.1171 10.3242 91.8665 10.0735C91.6158 9.82269 91.4611 9.49213 91.429 9.13921L90.9422 3.82132C90.9165 3.54446 90.952 3.26533 91.0463 3.00373C91.1407 2.74213 91.2915 2.50447 91.4881 2.30763L93.684 0.116055C93.735 0.0654726 93.7994 0.0304162 93.8696 0.0149712C93.9398 -0.000473836 94.013 0.00432847 94.0806 0.0288173C94.1481 0.0533062 94.2074 0.0964736 94.2513 0.153291C94.2953 0.210109 94.3222 0.278237 94.3289 0.349739L94.8347 5.74342C94.8671 6.09563 95.0217 6.42544 95.2719 6.67573C95.5221 6.92603 95.852 7.08105 96.2045 7.11395L101.606 7.61079C101.678 7.61751 101.746 7.64454 101.803 7.68873C101.86 7.73292 101.903 7.79242 101.928 7.86027C101.952 7.92811 101.956 8.00148 101.94 8.07177C101.925 8.14206 101.889 8.20635 101.838 8.25711L99.6438 10.4487C99.4472 10.6452 99.2098 10.796 98.9483 10.8906C98.6868 10.9852 98.4077 11.0212 98.1307 10.9961L92.801 10.5118Z" fill="#004E89"/>
<path d="M91.4291 21.1644C91.4616 20.8119 91.6166 20.4818 91.8672 20.2315C92.1178 19.9812 92.4482 19.8263 92.8011 19.7939L98.1308 19.3076C98.4077 19.2824 98.6868 19.3184 98.9483 19.413C99.2098 19.5076 99.4473 19.6585 99.6439 19.855L101.838 22.0465C101.889 22.097 101.925 22.1612 101.941 22.2314C101.957 22.3017 101.953 22.375 101.928 22.4428C101.904 22.5106 101.861 22.57 101.803 22.6139C101.746 22.6579 101.678 22.6845 101.606 22.6908L96.2004 23.1897C95.848 23.2221 95.5181 23.3767 95.2679 23.6267C95.0177 23.8766 94.863 24.2061 94.8305 24.5581L94.329 29.9581C94.3223 30.0296 94.2954 30.0977 94.2514 30.1546C94.2074 30.2114 94.1482 30.2546 94.0806 30.279C94.013 30.3035 93.9399 30.3083 93.8697 30.2929C93.7995 30.2774 93.7351 30.2424 93.6841 30.1918L91.4881 27.9981C91.2918 27.8015 91.1412 27.5642 91.0469 27.303C90.9525 27.0418 90.9168 26.7631 90.9423 26.4865L91.4291 21.1644Z" fill="#004E89"/>
<path d="M82.1374 9.13925C82.1049 9.49234 81.9497 9.82294 81.6987 10.0737C81.4477 10.3244 81.1168 10.4794 80.7633 10.5119L75.4336 10.9982C75.1567 11.0234 74.8775 10.9874 74.616 10.8928C74.3546 10.7982 74.1171 10.6473 73.9205 10.4508L71.7266 8.25925C71.6747 8.20845 71.6385 8.14381 71.6222 8.07303C71.606 8.00225 71.6105 7.9283 71.6351 7.85999C71.6598 7.79168 71.7036 7.73188 71.7612 7.6877C71.8189 7.64353 71.8881 7.61685 71.9606 7.61083L77.364 7.11188C77.7168 7.07904 78.047 6.9241 78.2975 6.67385C78.548 6.42359 78.7031 6.09375 78.736 5.74135L79.2396 0.345565C79.246 0.273634 79.2728 0.205019 79.3169 0.147798C79.361 0.0905766 79.4205 0.0471317 79.4885 0.0225785C79.5565 -0.00197467 79.6301 -0.00661388 79.7006 0.00920699C79.7712 0.0250279 79.8357 0.0606507 79.8866 0.11188L82.0805 2.30346C82.2774 2.50011 82.4286 2.73768 82.5233 2.99929C82.618 3.2609 82.6539 3.54013 82.6284 3.81714L82.1374 9.13925Z" fill="#004E89"/>
<path d="M61.0841 33.5603C60.9586 33.5436 60.8427 33.4843 60.756 33.3923C60.6692 33.3002 60.6169 33.1811 60.6078 33.055V17.6508C60.6125 17.5222 60.6657 17.4002 60.7568 17.3092C60.8479 17.2182 60.9701 17.165 61.0988 17.1603L62.888 16.9498V15.1519H54.3719V16.9498L56.2939 17.1413C56.4255 17.1477 56.5497 17.204 56.6413 17.2986C56.7329 17.3932 56.785 17.5192 56.787 17.6508V33.0697C56.7769 33.197 56.7217 33.3165 56.6313 33.4068C56.5409 33.4971 56.4213 33.5523 56.2939 33.5624L54.3445 33.9455V35.474H63.0398V33.9476L61.0841 33.5603Z" fill="#004E89"/>
<path d="M48.5112 33.5708C48.3877 33.5461 48.2748 33.4839 48.1881 33.3927C48.1013 33.3015 48.0449 33.1858 48.0265 33.0613L46.703 17.8529C46.703 17.8003 46.703 17.4319 47.1961 17.3729L49.0549 17.1624V15.1519H42.0498L37.8623 29.5245L33.5083 15.1519H25.8583V17.1624L27.8056 17.3729C27.9344 17.3734 28.058 17.424 28.15 17.5141C28.2421 17.6041 28.2954 17.7264 28.2987 17.855L27.2787 33.0971C27.2556 33.2133 27.198 33.3198 27.1135 33.4028C27.0289 33.4858 26.9212 33.5414 26.8046 33.5624L25.0259 33.9455V35.474H32.3808V33.9476L30.4841 33.5455C30.3555 33.5336 30.2355 33.4757 30.1461 33.3825C30.0567 33.2893 30.0039 33.1671 29.9973 33.0382L30.52 17.5919L36.5662 35.4866H38.0414L43.5039 17.6571L44.467 33.095C44.467 33.1182 44.467 33.4698 43.9739 33.5813L42.3701 33.9455V35.474H50.1571V33.9476L48.5112 33.5708Z" fill="#004E89"/>
<path d="M18.9669 33.5645C18.8412 33.5509 18.7238 33.4949 18.6341 33.4058C18.5445 33.3166 18.4879 33.1996 18.4738 33.074V17.6087C18.4842 17.485 18.539 17.3692 18.6281 17.2825C18.7171 17.1959 18.8344 17.1443 18.9585 17.1371L20.7014 16.9498V15.1519H12.514V16.9498L14.221 17.1161C14.3526 17.1225 14.4769 17.1787 14.5685 17.2733C14.6601 17.368 14.7121 17.4939 14.7141 17.6255V24.3224H6.01884V17.6066C6.02857 17.4821 6.08374 17.3655 6.17388 17.2789C6.26401 17.1924 6.38283 17.1419 6.50777 17.1371L8.21901 16.9498V15.1519H0V16.9498L1.73653 17.1371C1.86393 17.1436 1.98446 17.1968 2.07506 17.2866C2.16565 17.3763 2.21995 17.4962 2.22756 17.6234V33.0845C2.22756 33.0845 2.22756 33.4676 1.73442 33.575L0.025289 33.9476V35.4761H8.35388V33.9476L6.49512 33.5645C6.3732 33.548 6.26022 33.4915 6.17399 33.4039C6.08775 33.3162 6.03317 33.2023 6.01884 33.0803V26.415H14.7141V33.0845C14.7032 33.2115 14.6477 33.3305 14.5575 33.4206C14.4673 33.5108 14.3481 33.5662 14.221 33.5771L12.3791 33.9561V35.4845H20.8341V33.9476L18.9669 33.5666V33.5645Z" fill="#004E89"/>
</g>
<defs>
<clipPath id="clip0_2003_73">
<rect width="102" height="48" fill="white"/>
</clipPath>
</defs>
</svg>
